<?xml version="1.0" encoding="UTF-8" standalone="no"?>
<!DOCTYPE svg PUBLIC "-//W3C//DTD SVG 1.1//EN" "http://www.w3.org/Graphics/SVG/1.1/DTD/svg11.dtd">
<!-- Created with Vectornator (http://vectornator.io/) -->
<svg height="100%" stroke-miterlimit="10" style="fill-rule:nonzero;clip-rule:evenodd;stroke-linecap:round;stroke-linejoin:round;" version="1.1" viewBox="0 0 112.12 73.5" width="100%" xml:space="preserve" xmlns="http://www.w3.org/2000/svg" xmlns:vectornator="http://vectornator.io" xmlns:xlink="http://www.w3.org/1999/xlink">
<defs/>
<g id="Untitled" vectornator:layerName="Untitled">
<g opacity="1">
<path d="M0.249453 73.249L0.249453 0.250977L26.1284 0.250977C31.3692 0.250977 35.8126 2.139 39.4584 5.91504C43.1043 9.69108 44.9272 14.2321 44.9272 19.5381C44.9272 24.9092 43.1124 29.499 39.4829 33.3076C35.8533 37.1162 31.4506 39.0205 26.2748 39.0205L4.64398 39.0205L4.64398 73.249L0.249453 73.249ZM4.64398 34.4307L26.2748 34.4307C30.1485 34.4307 33.477 32.9821 36.2602 30.085C39.0434 27.1878 40.435 23.6722 40.435 19.5381C40.435 15.404 39.0353 11.8802 36.2358 8.9668C33.4363 6.05339 30.0672 4.59668 26.1284 4.59668L4.64398 4.59668L4.64398 34.4307Z" fill="#668000" fill-rule="nonzero" opacity="1" stroke="none"/>
<path d="M65.5327 65.7295L73.9311 65.7295C79.4649 65.7295 84.5431 64.4681 89.1655 61.9453C93.7879 59.4225 97.45 55.9476 100.152 51.5205C102.854 47.0934 104.205 42.2106 104.205 36.8721C104.205 31.501 102.854 26.5938 100.152 22.1504C97.45 17.707 93.7879 14.2158 89.1655 11.6768C84.5431 9.1377 79.4649 7.86816 73.9311 7.86816L65.5327 7.86816L65.5327 65.7295ZM57.769 73.249L57.769 0.348633L73.9311 0.348633C80.7996 0.348633 87.1391 1.95182 92.9496 5.1582C98.7602 8.36458 103.366 12.7673 106.768 18.3662C110.17 23.9652 111.871 30.1338 111.871 36.8721C111.871 43.5778 110.17 49.722 106.768 55.3047C103.366 60.8874 98.7602 65.2738 92.9496 68.4639C87.1391 71.654 80.7996 73.249 73.9311 73.249L57.769 73.249Z" fill="#668000" fill-rule="nonzero" opacity="1" stroke="none"/>
</g>
</g>
</svg>
